<svg width="30" height="30" viewBox="0 0 30 30" fill="none" xmlns="http://www.w3.org/2000/svg">
<path fill-rule="evenodd" clip-rule="evenodd" d="M4.52388 0.520254H6.51351H26.5009C27.6055 0.520254 28.5009 1.41568 28.5009 2.52025V24.5025C28.5009 25.6071 27.6055 26.5025 26.5009 26.5025H25.5025V27.5005C25.5025 28.605 24.6071 29.5005 23.5025 29.5005H1.51509V3.51825L1.5 3.50315L4.50362 0.5L4.52388 0.520254ZM5.31306 2.51889L4.3136 3.5182H23.5025C24.6071 3.5182 25.5025 4.41363 25.5025 5.5182V24.5025H26.5009L26.5009 2.52025H25.5025V2.51889H5.31306ZM19.5056 17.5086H17.435C16.985 19.2327 15.3978 20.5066 13.5088 20.5066C11.6198 20.5066 10.0326 19.2327 9.58255 17.5086H7.51189C7.99439 20.3444 10.4956 22.5052 13.5087 22.5052C16.5218 22.5052 19.0231 20.3444 19.5056 17.5086ZM19.5054 15.5086H17.4347C16.9841 13.7853 15.3973 12.5121 13.5088 12.5121C11.6203 12.5121 10.0334 13.7853 9.58291 15.5086H7.51212C7.99519 12.6735 10.4961 10.5134 13.5087 10.5134C16.5213 10.5134 19.0223 12.6735 19.5054 15.5086ZM7.42783 16.4958L7.42781 16.5093L7.42783 16.5229V16.4958ZM15.5078 16.5093C15.5078 17.6131 14.6128 18.508 13.5088 18.508C12.4048 18.508 11.5099 17.6131 11.5099 16.5093C11.5099 15.4055 12.4048 14.5107 13.5088 14.5107C14.6128 14.5107 15.5078 15.4055 15.5078 16.5093Z" fill="currentColor"/>
</svg>
