<svg width="30" height="30" viewBox="0 0 30 30" fill="none" xmlns="http://www.w3.org/2000/svg">
<path fill-rule="evenodd" clip-rule="evenodd" d="M6.51351 0.520255H4.52388L4.50362 0.5L1.5 3.50315L1.51509 3.51825V5.5182V27.5005V29.5005H3.51509H23.5025C24.6071 29.5005 25.5025 28.605 25.5025 27.5005V26.5025H26.5009C27.6055 26.5025 28.5009 25.6071 28.5009 24.5025V2.52026C28.5009 1.41569 27.6055 0.520255 26.5009 0.520255H6.51351ZM4.3136 3.5182L5.31306 2.51889H25.5025V2.52026H26.5009L26.5009 24.5025H25.5025V5.5182C25.5025 4.41363 24.6071 3.5182 23.5025 3.5182H4.3136ZM3.51509 5.5182L23.5025 5.5182L23.5025 27.5005L3.51509 27.5005V5.5182ZM19.5056 17.5087H17.435C16.985 19.2327 15.3978 20.5066 13.5088 20.5066C11.6198 20.5066 10.0326 19.2327 9.58254 17.5087H7.51187C7.99437 20.3444 10.4956 22.5052 13.5087 22.5052C16.5218 22.5052 19.0231 20.3444 19.5056 17.5087ZM19.5053 15.5087H17.4346C16.9841 13.7853 15.3973 12.5121 13.5088 12.5121C11.6203 12.5121 10.0334 13.7853 9.5829 15.5087H7.51211C7.99518 12.6735 10.4961 10.5134 13.5087 10.5134C16.5213 10.5134 19.0223 12.6735 19.5053 15.5087ZM7.42781 16.4958L7.4278 16.5093L7.42781 16.5229V16.4958ZM15.5077 16.5093C15.5077 17.6132 14.6128 18.508 13.5088 18.508C12.4048 18.508 11.5098 17.6132 11.5098 16.5093C11.5098 15.4055 12.4048 14.5107 13.5088 14.5107C14.6128 14.5107 15.5077 15.4055 15.5077 16.5093Z" fill="black"/>
</svg>
