<svg width="30" height="30" viewBox="0 0 30 30" fill="none" xmlns="http://www.w3.org/2000/svg">
<g clip-path="url(#clip0_3_9)">
<path fill-rule="evenodd" clip-rule="evenodd" d="M8.60254 27.5663L8.21057 26.1035L6.39089 25.6159C6.23949 25.5753 6.09683 25.5184 5.96428 25.4476L6.67068 28.084C6.95657 29.1509 8.05324 29.7841 9.12017 29.4982L14.9999 27.9227L11.1362 26.8874L8.60254 27.5663ZM2.90852 6.31595L10.001 4.41553L10.5987 2.18482L2.39088 4.3841C1.32395 4.66998 0.690781 5.76665 0.976665 6.83359L5.16486 22.4641L6.20013 18.6004L2.90852 6.31595Z" fill="black"/>
<rect x="11.8955" y="1.20894" width="17" height="24" rx="1" transform="rotate(15 11.8955 1.20894)" stroke="black" stroke-width="2" stroke-linejoin="round"/>
<path fill-rule="evenodd" clip-rule="evenodd" d="M20.5356 16.9826L22.5368 17.5188C21.336 20.1349 18.3591 21.5758 15.4471 20.7955C12.5352 20.0153 10.6775 17.279 10.9457 14.413L12.9467 14.9492C12.9351 16.7322 14.1392 18.3745 15.9647 18.8637C17.7903 19.3528 19.6542 18.5325 20.5356 16.9826ZM18.5529 9.20443C21.4649 9.98469 23.3225 12.721 23.0544 15.587L21.0533 15.0508C21.0649 13.2678 19.8608 11.6254 18.0353 11.1363C16.2097 10.6471 14.3458 11.4674 13.4644 13.0173L11.4633 12.4811C12.664 9.86507 15.641 8.42418 18.5529 9.20443ZM16.4824 16.9318C17.5493 17.2177 18.646 16.5846 18.9319 15.5176C19.2178 14.4507 18.5846 13.354 17.5177 13.0681C16.4507 12.7823 15.3541 13.4154 15.0682 14.4824C14.7823 15.5493 15.4155 16.646 16.4824 16.9318Z" fill="black"/>
</g>
<defs>
<clipPath id="clip0_3_9">
<rect width="30" height="30" fill="white"/>
</clipPath>
</defs>
</svg>
