<svg width="24" height="24" viewBox="0 0 24 24" fill="none" xmlns="http://www.w3.org/2000/svg">
<g clip-path="url(#clip0_3_9)">
<path fill-rule="evenodd" clip-rule="evenodd" d="M5.52952 16.5664L2.48744 5.21314L9.04222 3.45679L5.52952 16.5664ZM1.61625 3.89366L9.49051 1.78376L9.5679 1.49495C9.71084 0.961482 10.2592 0.644899 10.7926 0.787841L12 1.11135L13.2074 0.787832C13.7408 0.64489 14.2892 0.961473 14.4321 1.49494L14.5095 1.78377L14.5095 1.78378L22.3838 3.89367C22.9172 4.03661 23.2338 4.58495 23.0909 5.11841L18.4321 22.5051C18.2892 23.0385 17.7408 23.3551 17.2074 23.2122L12 21.8169L6.79263 23.2122C6.25916 23.3551 5.71082 23.0385 5.56788 22.5051L0.909139 5.11841C0.766197 4.58494 1.08278 4.0366 1.61625 3.89366ZM6.54473 20.3552L9.10218 21.0404L6.88736 21.6339L6.54473 20.3552ZM6.54473 20.3552L5.61626 20.1064C5.54961 20.0885 5.48635 20.0643 5.42694 20.0346C5.48635 20.0643 5.54962 20.0885 5.61627 20.1064L6.54473 20.3552ZM10.8874 2.36614L6.48746 18.7869L17.1126 21.6339L21.5126 5.21315L10.8874 2.36614ZM16.3741 13.6982L18.3742 14.2341C17.336 16.3187 14.9424 17.4557 12.6059 16.8296C10.2694 16.2036 8.76494 14.0221 8.90814 11.6977L10.9083 12.2336C11.0045 13.4657 11.8618 14.5597 13.1235 14.8978C14.3852 15.2359 15.6747 14.7171 16.3741 13.6982ZM15.1941 7.17037C17.5306 7.79644 19.035 9.9779 18.8918 12.3023L16.8917 11.7663C16.7955 10.5343 15.9382 9.4403 14.6764 9.10222C13.4147 8.76415 12.1253 9.2829 11.4259 10.3018L9.42578 9.76586C10.464 7.68129 12.8575 6.5443 15.1941 7.17037Z" fill="#8C8C8C"/>
</g>
<defs>
<clipPath id="clip0_3_9">
<rect width="24" height="24" fill="white"/>
</clipPath>
</defs>
</svg>
