<svg width="30" height="30" viewBox="0 0 30 30" fill="none" xmlns="http://www.w3.org/2000/svg">
<g clip-path="url(#clip0_4_221)">
<path fill-rule="evenodd" clip-rule="evenodd" d="M2.39088 4.38408L8.36797 2.78252L4.12958 18.6004L0.976665 6.83357C0.690781 5.76664 1.32395 4.66996 2.39088 4.38408ZM6.67068 28.0839L6.57758 27.7365L11.1362 28.958L9.12017 29.4982C8.05324 29.784 6.95657 29.1509 6.67068 28.0839Z" fill="currentColor"/>
<path fill-rule="evenodd" clip-rule="evenodd" d="M10.6707 1.91606C10.9566 0.849123 12.0533 0.215958 13.1202 0.501842L27.6091 4.38413C28.6761 4.67001 29.3092 5.76669 29.0233 6.83362L23.3293 28.084C23.0434 29.1509 21.9468 29.7841 20.8798 29.4982L6.39094 25.6159C5.32401 25.33 4.69084 24.2334 4.97673 23.1664L10.6707 1.91606ZM22.5368 17.5188L20.5357 16.9826C19.6542 18.5325 17.7903 19.3529 15.9648 18.8637C14.1392 18.3745 12.9352 16.7322 12.9468 14.9492L10.9457 14.413C10.6775 17.279 12.5352 20.0153 15.4471 20.7956C18.3591 21.5758 21.336 20.1349 22.5368 17.5188ZM23.0544 15.587C23.3226 12.721 21.4649 9.9847 18.553 9.20445C15.641 8.42419 12.6641 9.86509 11.4633 12.4812L13.4644 13.0174C14.3459 11.4674 16.2097 10.6471 18.0353 11.1363C19.8609 11.6255 21.0649 13.2678 21.0533 15.0508L23.0544 15.587ZM16.4824 16.9319C17.5494 17.2177 18.646 16.5846 18.9319 15.5176C19.2178 14.4507 18.5846 13.354 17.5177 13.0682C16.4508 12.7823 15.3541 13.4154 15.0682 14.4824C14.7823 15.5493 15.4155 16.646 16.4824 16.9319Z" fill="currentColor"/>
</g>
<defs>
<clipPath id="clip0_4_221">
<rect width="30" height="30" fill="white"/>
</clipPath>
</defs>
</svg>
