<svg width="30" height="30" viewBox="0 0 30 30" fill="none" xmlns="http://www.w3.org/2000/svg">
<path fill-rule="evenodd" clip-rule="evenodd" d="M1 7C1 6.44772 1.44772 6 2 6H28C28.5523 6 29 6.44772 29 7C29 7.55228 28.5523 8 28 8H2C1.44772 8 1 7.55228 1 7ZM5 15C5 14.4477 5.44772 14 6 14H24C24.5523 14 25 14.4477 25 15C25 15.5523 24.5523 16 24 16H6C5.44772 16 5 15.5523 5 15ZM10 22C9.44771 22 9 22.4477 9 23C9 23.5523 9.44771 24 10 24H20C20.5523 24 21 23.5523 21 23C21 22.4477 20.5523 22 20 22H10Z" fill="black"/>
</svg>
