<svg width="30" height="30" viewBox="0 0 30 30" fill="none" xmlns="http://www.w3.org/2000/svg">
<g clip-path="url(#clip0_32_497)">
<path fill-rule="evenodd" clip-rule="evenodd" d="M27.5 10.5C27.5 14.9183 23.9183 18.5 19.5 18.5C15.0817 18.5 11.5 14.9183 11.5 10.5C11.5 6.08172 15.0817 2.5 19.5 2.5C23.9183 2.5 27.5 6.08172 27.5 10.5ZM29.5 10.5C29.5 16.0228 25.0228 20.5 19.5 20.5C17.2797 20.5 15.2284 19.7764 13.5691 18.5522L12.9602 19.1612L3.06066 29.0607C2.47487 29.6464 1.52513 29.6464 0.93934 29.0607C0.353553 28.4749 0.353553 27.5251 0.93934 26.9393L10.8388 17.0398L11.4478 16.4309C10.2236 14.7716 9.5 12.7203 9.5 10.5C9.5 4.97715 13.9772 0.5 19.5 0.5C25.0228 0.5 29.5 4.97715 29.5 10.5Z" fill="black"/>
</g>
<defs>
<clipPath id="clip0_32_497">
<rect width="30" height="30" fill="white"/>
</clipPath>
</defs>
</svg>
