<svg width="30" height="30" viewBox="0 0 30 30" fill="none" xmlns="http://www.w3.org/2000/svg">
<path fill-rule="evenodd" clip-rule="evenodd" d="M20.9684 3C21.5206 3 21.9684 3.44772 21.9684 4V23.5873L27.3015 18.2467C27.6918 17.856 28.3245 17.856 28.7148 18.2467C29.105 18.6375 29.105 19.2711 28.7148 19.6619L21.9317 26.4544C21.885 26.5471 21.823 26.634 21.7457 26.7115C21.5416 26.9158 21.2712 27.0133 21.0039 27.0039C20.7364 27.0134 20.4659 26.9159 20.2617 26.7115C20.1844 26.634 20.1224 26.5471 20.0757 26.4544L13.2927 19.6619C12.9024 19.2711 12.9024 18.6375 13.2927 18.2467C13.6829 17.8559 14.3157 17.8559 14.7059 18.2467L19.9684 23.5165V4C19.9684 3.44772 20.4161 3 20.9684 3Z" fill="black"/>
<path fill-rule="evenodd" clip-rule="evenodd" d="M8.96836 27C9.52065 27 9.96836 26.5523 9.96836 26V6.41269L15.3015 11.7533C15.6918 12.144 16.3245 12.144 16.7148 11.7533C17.105 11.3625 17.105 10.7289 16.7148 10.3381L9.93172 3.54562C9.88504 3.45291 9.82304 3.36596 9.74572 3.28853C9.54163 3.08416 9.27123 2.98667 9.00387 2.99605C8.73642 2.98659 8.46591 3.08408 8.26175 3.28852C8.18442 3.36596 8.12241 3.45292 8.07573 3.54565L1.29269 10.3381C0.902436 10.7289 0.902436 11.3625 1.29269 11.7533C1.68294 12.1441 2.31567 12.1441 2.70593 11.7533L7.96836 6.48354V26C7.96836 26.5523 8.41608 27 8.96836 27Z" fill="black"/>
</svg>
